<svg xmlns="http://www.w3.org/2000/svg" width="19" height="11" viewBox="0 0 19 11" fill="none">
<path d="M9.66552 10.412C10.0251 10.3773 10.3651 10.2321 10.6389 9.99642L17.9889 3.69642C18.172 3.54971 18.3237 3.3677 18.435 3.16119C18.5463 2.95469 18.6149 2.72791 18.6369 2.49435C18.6588 2.26078 18.6335 2.0252 18.5626 1.80159C18.4917 1.57798 18.3765 1.37092 18.224 1.1927C18.0714 1.01448 17.8846 0.868733 17.6746 0.76415C17.4646 0.659566 17.2357 0.598268 17.0016 0.583894C16.7674 0.56952 16.5328 0.602361 16.3116 0.680473C16.0904 0.758587 15.8871 0.880391 15.7139 1.03861L9.50144 6.36517L3.28894 1.03861C3.11574 0.88039 2.9125 0.758586 2.69129 0.680472C2.47009 0.602359 2.23544 0.569519 2.00129 0.583892C1.76714 0.598267 1.53826 0.659564 1.32827 0.764148C1.11829 0.868732 0.931466 1.01448 0.778918 1.1927C0.62637 1.37092 0.511205 1.57798 0.440272 1.80159C0.36934 2.0252 0.344084 2.26078 0.366009 2.49434C0.387934 2.72791 0.456591 2.95469 0.567898 3.16119C0.679206 3.36769 0.830891 3.54971 1.01394 3.69642L8.36394 9.99642C8.54193 10.1494 8.74889 10.2651 8.9725 10.3365C9.1961 10.4079 9.43178 10.4336 9.66552 10.412Z" fill="green"/>
</svg>
