<?xml version="1.0" encoding="utf-8"?>
<!-- Generator: Adobe Illustrator 21.0.0, SVG Export Plug-In . SVG Version: 6.00 Build 0)  -->
<svg version="1.0" id="Ebene_1" xmlns="http://www.w3.org/2000/svg" xmlns:xlink="http://www.w3.org/1999/xlink" x="0px" y="0px"
	 viewBox="0 0 45.4 49.9" style="enable-background:new 0 0 45.4 49.9;" xml:space="preserve">
<style type="text/css">
	.st0{fill:lime;}
	.st1{clip-path:url(#SVGID_2_);fill:#FFFFFF;}
</style>
<rect y="0" class="st0" width="45.3" height="50"/>
<g>
	<defs>
		<rect id="SVGID_1_" y="0" width="45.3" height="50"/>
	</defs>
	<clipPath id="SVGID_2_">
		<use xlink:href="#SVGID_1_"  style="overflow:visible;"/>
	</clipPath>
	<path class="st1" d="M13.9,34.8c2.6,1.6,4.1,2,12-7.9c8-10.2,7-12,4.3-14.1l-0.4-0.4c-0.7-0.5-1.7-0.4-2.3,0.3l-2.5,3.2
		c-0.5,0.8-0.4,1.8,0.3,2.4l0.5,0.3c1.9,1.6-0.4,4.9-1.8,6.6c-1.4,1.8-4,4.8-6,3.2l-0.5-0.3c-0.7-0.7-1.8-0.5-2.3,0.2l-2.6,3.3
		C11.9,32.3,13.2,34.3,13.9,34.8"/>
</g>
</svg>
