<?xml version="1.0" encoding="utf-8"?>
<!-- Generator: Adobe Illustrator 21.0.0, SVG Export Plug-In . SVG Version: 6.00 Build 0)  -->
<svg version="1.0" id="Ebene_1" xmlns="http://www.w3.org/2000/svg" xmlns:xlink="http://www.w3.org/1999/xlink" x="0px" y="0px"
	 viewBox="0 0 45.4 49.9" style="enable-background:new 0 0 45.4 49.9;" xml:space="preserve">
<style type="text/css">
	.st0{fill:lime;}
	.st1{clip-path:url(#SVGID_2_);fill:#FFFFFF;}
	.st2{clip-path:url(#SVGID_2_);fill:none;stroke:#FFFFFF;stroke-miterlimit:10;}
</style>
<rect x="0" y="0" class="st0" width="45.3" height="50"/>
<g>
	<defs>
		<rect id="SVGID_1_" x="0" y="0" width="45.3" height="50"/>
	</defs>
	<clipPath id="SVGID_2_">
		<use xlink:href="#SVGID_1_"  style="overflow:visible;"/>
	</clipPath>
	<path class="st1" d="M12.3,15.2l12,11.5l11.9-11.5c0,0,0.1-0.1,0.2-0.1c-0.6-0.4-1.3-0.7-2-0.7H14.1c-0.8,0-1.4,0.3-2,0.7
		C12.2,15.1,12.3,15.1,12.3,15.2"/>
	<path class="st1" d="M37.2,31.1c0.1,0.1,0.2,0.1,0.3,0.2c0.2-0.4,0.2-0.8,0.2-1.2V17.6c0-0.2,0-0.4-0.1-0.6l-7.4,7.1
		C33.3,27.3,36.5,30.6,37.2,31.1"/>
	<path class="st2" d="M37.2,31.1c0.1,0.1,0.2,0.1,0.3,0.2c0.2-0.4,0.2-0.8,0.2-1.2V17.6c0-0.2,0-0.4-0.1-0.6l-7.4,7.1
		C33.3,27.3,36.5,30.6,37.2,31.1z"/>
	<path class="st1" d="M28.6,25.9l-3.5,3.3c-0.2,0.2-0.5,0.3-0.8,0.3c-0.3,0-0.6-0.1-0.8-0.3l-3.6-3.4L12.7,33
		c0.4,0.2,0.9,0.4,1.5,0.4h20.2c0.5,0,1-0.1,1.5-0.4C34.8,32.4,33,30.5,28.6,25.9"/>
	<path class="st2" d="M28.6,25.9l-3.5,3.3c-0.2,0.2-0.5,0.3-0.8,0.3c-0.3,0-0.6-0.1-0.8-0.3l-3.6-3.4L12.7,33
		c0.4,0.2,0.9,0.4,1.5,0.4h20.2c0.5,0,1-0.1,1.5-0.4C34.8,32.4,33,30.5,28.6,25.9z"/>
	<path class="st1" d="M10.8,17c0,0.2-0.1,0.4-0.1,0.6v12.5c0,0.4,0.1,0.8,0.2,1.2l7.3-7.2L10.8,17z"/>
	<path class="st2" d="M10.8,17c0,0.2-0.1,0.4-0.1,0.6v12.5c0,0.4,0.1,0.8,0.2,1.2l7.3-7.2L10.8,17z"/>
</g>
</svg>
